# xmcd CD database file
#
# Track frame offsets:
#	150
#	16801
#	32842
#	51791
#	68106
#	84132
#	106027
#	118132
#	133979
#	148077
#	166867
#	188414
#
# Disc length: 2755 seconds
#
# Revision: 0
# Processed by: cddbd v1.5.1PL0 Copyright (c) Steve Scherf et al.
# Submitted via: CDex 1.51
#
DISCID=970ac10c
DTITLE=Various Artist - Música total en verano
DYEAR=2004
DGENRE=Salsa
TTITLE0=Bambu Bambu
TTITLE1=Dragostea Din Tei
TTITLE2=Obsesion
TTITLE3=Malo
TTITLE4=Magalenha
TTITLE5=El Baile Del Pescao
TTITLE6=Pádentro Páfuera
TTITLE7=Hey Arriba
TTITLE8=Como Ronea
TTITLE9=Mueve Mami
TTITLE10=Lola
TTITLE11=Golosa
EXTD=YEAR: 2004
EXTT0=
EXTT1=
EXTT2=
EXTT3=
EXTT4=
EXTT5=
EXTT6=
EXTT7=
EXTT8=
EXTT9=
EXTT10=
EXTT11=
PLAYORDER=
